<svg xmlns="http://www.w3.org/2000/svg" width="32" height="32" version="1" id="camera"><path fill="#24c4bc" fill-rule="evenodd" d="M32 16c0 8.824-7.176 16-16 16S0 24.824 0 16 7.176 0 16 0c8.877 0 16 7.176 16 16z" clip-rule="evenodd"></path><path fill="#249eb2" d="M16.791 31.92c.822-.041 1.645-.085 2.43-.246a15.868 15.868 0 0 0 5.718-2.41 16.12 16.12 0 0 0 5.801-7.041c.406-.957.72-1.962.934-3.002.037-.18.026-.374.056-.555l-7.546-7.547a1.47 1.47 0 0 0-1.047-.428h-5.133l-1.887-1.886c-.118-.118-.235-.12-.353-.178H10.928c-.118 0-.236.06-.354.178s-.119.235-.178.353V10.692H8.863a1.46 1.46 0 0 0-1.474 1.474v9.733c0 .412.162.78.427 1.046l8.975 8.975z"></path><path fill="#fff" d="M11.282 8.628h-.354c-.118 0-.236.059-.354.177-.118.117-.118.235-.177.353V10.692H8.864a1.46 1.46 0 0 0-1.475 1.474v7.373c0-.118.118-.295.295-.295h4.777c.177 0 .295.118.295.295s-.177.295-.295.295H7.743c-.177 0-.354-.118-.354-.295v2.359a1.46 1.46 0 0 0 1.475 1.474h14.272a1.46 1.46 0 0 0 1.475-1.474v-9.732a1.46 1.46 0 0 0-1.475-1.474h-6.841V9.158c0-.118-.06-.236-.177-.353-.118-.118-.236-.118-.354-.177h-4.482zm.471 1.18c.06 0 .06 0 0 0h3.008c.177 0 .295.117.295.294s-.177.295-.295.295h-2.949a.398.398 0 0 1-.353-.236c.059-.177.177-.354.294-.354zm8.14 2.063c.648 0 1.18.531 1.18 1.18 0 .649-.532 1.18-1.18 1.18-.65 0-1.18-.531-1.18-1.18 0-.649.53-1.18 1.18-1.18zm-11.088.295h4.187c.177 0 .295.118.295.295s-.177.295-.295.295H8.864a.398.398 0 0 1-.354-.236c0-.177.118-.354.295-.354zm13.742 0c.472 0 .884.413.884.885a.907.907 0 0 1-.884.885.907.907 0 0 1-.885-.885c0-.472.413-.885.885-.885zm-2.654.295c-.295 0-.59.295-.59.59a.591.591 0 0 0 1.18 0 .591.591 0 0 0-.59-.59zm2.654.295c-.177 0-.295.118-.295.295s.118.295.295.295.295-.118.295-.295-.118-.295-.295-.295zm-6.842 1.77a2.958 2.958 0 0 1 2.95 2.948c0 1.593-1.357 2.95-2.95 2.95-1.651 0-3.008-1.298-3.008-2.95 0-1.65 1.357-2.948 3.008-2.948zm3.775 4.718h4.836c.177 0 .295.118.295.295s-.177.295-.295.295h-4.718a.398.398 0 0 1-.354-.236c-.06-.118.059-.295.236-.354z"></path></svg>