<svg xmlns="http://www.w3.org/2000/svg" viewBox="0 0 32 32" id="crown"><path fill="#fecb5b" d="M27.793 13.207 22.5 18.5 16.493 7.41c-.155.055-.319.09-.493.09s-.338-.035-.493-.09L9.5 18.5l-5.293-5.293a.991.991 0 0 1-.469.245L6.5 24.5h19l2.762-11.048a.991.991 0 0 1-.469-.245z"></path><path fill="#fcd770" d="m5.5 27.5 1-3h19l1 3z"></path><circle cx="23" cy="9" r="1" fill="#f8b545"></circle><circle cx="28.5" cy="12.5" r="1" fill="#fecb5b"></circle><circle cx="16" cy="19.5" r="2" fill="#ef4a4c"></circle><circle cx="9" cy="9" r="1" fill="#f8b545"></circle><path fill="#f8b545" d="M9.277 9.944C9.188 9.97 9.098 10 9 10c-.074 0-.14-.027-.21-.042l-2.462 5.371L9.5 18.5l2.379-4.393-2.602-4.163zm13.933.014c-.07.015-.136.042-.21.042-.098 0-.188-.03-.277-.056l-2.602 4.163L22.5 18.5l3.171-3.171-2.461-5.371z"></path><circle cx="3.5" cy="12.5" r="1" fill="#fecb5b"></circle><circle cx="16" cy="6" r="1.5" fill="#fecb5b"></circle><path fill="#004463" d="M26.5 28h-21a.496.496 0 0 1-.405-.208.496.496 0 0 1-.069-.45l1-3A.5.5 0 0 1 6.5 24h19c.215 0 .406.138.475.342l1 3A.499.499 0 0 1 26.5 28zM6.193 27h19.613l-.667-2H6.86l-.667 2zM23 10.5c-.827 0-1.5-.673-1.5-1.5s.673-1.5 1.5-1.5 1.5.673 1.5 1.5-.673 1.5-1.5 1.5zm0-2c-.275 0-.5.225-.5.5s.225.5.5.5.5-.225.5-.5-.225-.5-.5-.5zm5.5 5.5c-.827 0-1.5-.673-1.5-1.5s.673-1.5 1.5-1.5 1.5.673 1.5 1.5-.673 1.5-1.5 1.5zm0-2c-.275 0-.5.225-.5.5s.225.5.5.5.5-.225.5-.5-.225-.5-.5-.5zM16 22c-1.379 0-2.5-1.121-2.5-2.5S14.621 17 16 17s2.5 1.121 2.5 2.5S17.379 22 16 22zm0-4c-.827 0-1.5.673-1.5 1.5S15.173 21 16 21s1.5-.673 1.5-1.5S16.827 18 16 18zm-7-7.5c-.827 0-1.5-.673-1.5-1.5S8.173 7.5 9 7.5s1.5.673 1.5 1.5-.673 1.5-1.5 1.5zm0-2c-.275 0-.5.225-.5.5s.225.5.5.5.5-.225.5-.5-.225-.5-.5-.5z"></path><path fill="#004463" d="M9.5 19a.503.503 0 0 1-.354-.146l-3.172-3.172a.501.501 0 0 1-.101-.562l2.462-5.37a.495.495 0 0 1 .557-.281l.04.524.094-.491a.326.326 0 0 1 .084-.029c.216-.065.473.016.591.207l2.603 4.163a.498.498 0 0 1 .016.503l-2.38 4.393a.502.502 0 0 1-.367.257A.944.944 0 0 1 9.5 19zm-2.572-3.779 2.452 2.452 1.922-3.548-2.234-3.573-2.14 4.669zm2.349-5.277.141.479-.141-.479zM22.5 19a.5.5 0 0 1-.439-.262l-2.38-4.393a.498.498 0 0 1 .016-.503L22.3 9.679a.498.498 0 0 1 .564-.215c.065.02.118.036.136.036l.108-.031a.494.494 0 0 1 .556.281l2.462 5.37a.499.499 0 0 1-.101.562l-3.172 3.172A.499.499 0 0 1 22.5 19zm-1.802-4.875 1.922 3.548 2.452-2.452-2.14-4.669-2.234 3.573zm2.512-4.167.102.489-.102-.489zM3.5 14c-.827 0-1.5-.673-1.5-1.5S2.673 11 3.5 11s1.5.673 1.5 1.5S4.327 14 3.5 14zm0-2c-.275 0-.5.225-.5.5s.225.5.5.5.5-.225.5-.5-.225-.5-.5-.5zM16 8c-1.103 0-2-.897-2-2s.897-2 2-2 2 .897 2 2-.897 2-2 2zm0-3a1 1 0 1 0 0 2 1 1 0 0 0 0-2z"></path><path fill="#004463" d="M25.5 25h-19a.5.5 0 0 1-.485-.379L3.253 13.573a.5.5 0 0 1 .363-.605.518.518 0 0 0 .237-.114.5.5 0 0 1 .707 0l4.819 4.819 5.688-10.501a.5.5 0 0 1 .605-.233.9.9 0 0 0 .654 0 .5.5 0 0 1 .605.233l5.688 10.501 4.819-4.819a.5.5 0 0 1 .707 0 .518.518 0 0 0 .237.114c.268.067.43.338.363.605l-2.762 11.048A.496.496 0 0 1 25.5 25zM6.891 24H25.11l2.468-9.87-4.724 4.724a.5.5 0 0 1-.793-.115L16.235 7.984a1.769 1.769 0 0 1-.471 0L9.939 18.738a.502.502 0 0 1-.367.257.503.503 0 0 1-.426-.142L4.423 14.13 6.891 24z"></path></svg>