<?xml version="1.0" ?><svg style="enable-background:new 0 0 48 48;" version="1.1" viewBox="0 0 48 48" xml:space="preserve" xmlns="http://www.w3.org/2000/svg" xmlns:xlink="http://www.w3.org/1999/xlink"><style type="text/css">
	.st0{display:none;}
	.st1{fill:none;stroke:#303030;stroke-width:0.7;stroke-linecap:round;stroke-linejoin:round;stroke-miterlimit:10;}
	.st2{fill:#303030;}
</style><g class="st0" id="Padding__x26__Artboard"/><g id="Icons"><g><path class="st1" d="M31.343,34.4291c0.07829,0,0.1387-0.06472,0.12503-0.14181c-0.08133-0.45869-0.33378-1.79919-0.92271-2.48908    c-0.03276-0.03838-0.06841-0.07388-0.10468-0.1089c-0.82362-0.7953-2.01063-1.31149-3.01094-1.83913    c-0.54992-0.29006-1.10382-0.5724-1.65602-0.85809c-0.76009-0.39324-1.37725-0.70354-1.70748-1.54046    c-0.29855-0.75663-0.30457-0.84492-0.35275-1.64532l0.36812-0.45297c0.27473-0.40555,0.48405-1.94926,0.48405-1.94926    c0.32783-0.00911,0.5863-0.3526,0.67243-0.62362c0.13904-0.43752,0.27298-0.84383,0.32641-1.30068    c0.03941-0.33693,0.10724-0.75077-0.16077-1.01752c-0.04551-0.04528-0.42935-0.14308-0.48476-0.02804    c0.03924-0.08146,0.09149-2.14532,0.09149-2.14532l0.50019-0.37168l-0.14903-1.13018c0,0-0.5092-2.47149-3.06763-3.06763    c-2.55843-0.59614-4.09846,0.79485-4.09846,0.79485c-0.80727,0-1.34131,0.54646-1.58971,1.54004    c-0.1132,0.4528-0.12211,0.92959-0.09006,1.39309c0.02176,0.3147,0.09938,0.62683,0.1132,0.94016    c0.01953,0.42469,0.02439,0.85028,0.04087,1.27517c0.00672,0.17319,0.01371,0.34642,0.02398,0.51944    c0.00427,0.07184-0.00783,0.18504,0.02444,0.25205c-0.05541-0.11504-0.43926-0.01724-0.48476,0.02804    c-0.26801,0.26675-0.20018,0.6806-0.16077,1.01752c0.05344,0.45685,0.18737,0.86316,0.32641,1.30068    c0.08613,0.27102,0.3446,0.61452,0.67243,0.62362c0,0,0.20932,1.54371,0.48405,1.94926l0.36812,0.45297    c-0.04818,0.8004-0.0542,0.88869-0.35275,1.64532c-0.33023,0.83692-0.94739,1.14722-1.70748,1.54046    c-0.55219,0.28568-1.1061,0.56802-1.65602,0.85809c-1.00032,0.52764-2.18732,1.04384-3.01095,1.83913    c-0.03627,0.03502-0.07192,0.07052-0.10468,0.1089c-0.59686,0.69918-0.84812,2.06661-0.9259,2.50713    c-0.01195,0.0677,0.04117,0.12376,0.10992,0.12376H31.343z"/><circle class="st1" cx="33.31234" cy="18.91288" r="4.54417"/><g><line class="st1" x1="33.31234" x2="33.31234" y1="16.25972" y2="21.56604"/><line class="st1" x1="35.96551" x2="30.65918" y1="18.91288" y2="18.91288"/></g></g></g></svg>