<?xml version="1.0" ?><svg data-name="Layer 3" id="Layer_3" viewBox="0 0 32 32" xmlns="http://www.w3.org/2000/svg"><defs><style>.cls-1,.cls-3{fill:none;stroke:#0832ff;stroke-linecap:round;stroke-linejoin:round;}.cls-1{stroke-width:2px;}.cls-2{fill:#0832ff;}</style></defs><title/><path class="cls-1" d="M8.25,25a5,5,0,0,1-4.9-6,5.12,5.12,0,0,1,5.08-4H10V25Z"/><path class="cls-1" d="M23.75,25a5,5,0,0,0,4.9-6,5.12,5.12,0,0,0-5.08-4H22V25Z"/><path class="cls-1" d="M7,15V13.82a9.11,9.11,0,0,1,6.91-9A9,9,0,0,1,25,13.61V15"/><path class="cls-1" d="M10,25h0a3,3,0,0,0,3,3"/><circle class="cls-2" cx="16" cy="28" r="1"/><line class="cls-3" x1="7.5" x2="7.5" y1="15.5" y2="24.5"/><rect class="cls-2" height="10" width="2" x="22" y="15"/></svg>